<svg xmlns="http://www.w3.org/2000/svg" viewBox="0 0 960 540" role="img" aria-label="AI gas network safety monitoring">
  <defs><linearGradient id="bg" x1="0" x2="1" y1="0" y2="1"><stop stop-color="#17263a"/><stop offset="1" stop-color="#4a7465"/></linearGradient></defs>
  <rect width="960" height="540" rx="34" fill="url(#bg)"/>
  <g stroke="#d8fff2" stroke-opacity=".16"><path d="M90 120h780M90 240h780M90 360h780"/><path d="M220 80v380M480 80v380M740 80v380"/></g>
  <g transform="translate(112 132)" fill="none" stroke="#fff" stroke-width="18" stroke-linecap="round" stroke-linejoin="round" opacity=".92">
    <path d="M0 150h240c54 0 54-86 108-86h166c54 0 54 86 108 86h96"/>
    <circle cx="240" cy="150" r="34" fill="#16c8dc" stroke="none"/><circle cx="514" cy="64" r="34" fill="#f6a23a" stroke="none"/><circle cx="622" cy="150" r="34" fill="#16c8dc" stroke="none"/>
  </g>
  <g transform="translate(352 254)">
    <rect width="260" height="132" rx="24" fill="#fff" opacity=".94"/>
    <path d="M132 26c44 42 68 78 46 112-24 37-88 34-106-4-15-32 4-68 60-108z" fill="#f6a23a" opacity=".85"/>
    <path d="M56 104h148" stroke="#123352" stroke-opacity=".18" stroke-width="12" stroke-linecap="round"/>
  </g>
</svg>
