<svg xmlns="http://www.w3.org/2000/svg" viewBox="0 0 960 540" role="img" aria-label="AI water network monitoring">
  <defs><linearGradient id="bg" x1="0" x2="1" y1="0" y2="1"><stop stop-color="#063347"/><stop offset="1" stop-color="#0f8fa7"/></linearGradient></defs>
  <rect width="960" height="540" rx="34" fill="url(#bg)"/>
  <path d="M0 360c140-64 236 52 382-12s216-142 358-74c86 41 138 46 220 4v262H0z" fill="#e9fbff" opacity=".12"/>
  <g stroke="#b7f5ff" stroke-opacity=".17"><path d="M120 100h720M120 200h720M120 300h720M120 400h720"/><path d="M240 70v390M480 70v390M720 70v390"/></g>
  <g transform="translate(150 86)">
    <rect width="260" height="310" rx="28" fill="#fff" opacity=".94"/>
    <path d="M130 48c44 62 76 102 76 150a76 76 0 1 1-152 0c0-48 32-88 76-150z" fill="#16c8dc" opacity=".75"/>
    <path d="M72 250h116M72 286h88" stroke="#123352" stroke-opacity=".24" stroke-width="14" stroke-linecap="round"/>
  </g>
  <g transform="translate(506 128)" fill="none" stroke="#fff" stroke-width="18" stroke-linecap="round" opacity=".94">
    <path d="M0 190h230c52 0 52-82 104-82h70"/>
    <path d="M110 190v-92h168"/>
    <circle cx="110" cy="98" r="22" fill="#f6a23a" stroke="none"/><circle cx="278" cy="98" r="22" fill="#16c8dc" stroke="none"/><circle cx="404" cy="108" r="22" fill="#f6a23a" stroke="none"/>
  </g>
</svg>
