<svg xmlns="http://www.w3.org/2000/svg" viewBox="0 0 960 540" role="img" aria-label="AI manufacturing line monitoring">
  <defs><linearGradient id="bg" x1="0" x2="1" y1="0" y2="1"><stop stop-color="#0b2630"/><stop offset="1" stop-color="#1c6f62"/></linearGradient></defs>
  <rect width="960" height="540" rx="34" fill="url(#bg)"/>
  <g stroke="#9ff7e4" stroke-opacity=".18"><path d="M90 110h780M90 220h780M90 330h780M90 440h780"/><path d="M170 70v400M320 70v400M470 70v400M620 70v400M770 70v400"/></g>
  <g transform="translate(86 270)">
    <rect width="790" height="72" rx="22" fill="#f8fdff" opacity=".92"/>
    <circle cx="80" cy="36" r="18" fill="#123352" opacity=".35"/><circle cx="210" cy="36" r="18" fill="#123352" opacity=".35"/><circle cx="340" cy="36" r="18" fill="#123352" opacity=".35"/><circle cx="470" cy="36" r="18" fill="#123352" opacity=".35"/><circle cx="600" cy="36" r="18" fill="#123352" opacity=".35"/><circle cx="730" cy="36" r="18" fill="#123352" opacity=".35"/>
  </g>
  <g transform="translate(120 112)" fill="#fff" opacity=".94">
    <path d="M0 230V78l72 48V76l78 52V0h138v230z"/>
    <rect x="44" y="160" width="54" height="46" rx="8" fill="#16c8dc"/><rect x="132" y="160" width="54" height="46" rx="8" fill="#f6a23a"/><rect x="220" y="160" width="54" height="46" rx="8" fill="#16c8dc"/>
  </g>
  <g transform="translate(530 96)">
    <rect width="300" height="190" rx="24" fill="#fff" opacity=".94"/>
    <path d="M44 138c42-70 86-18 126-56s62-24 92-56" fill="none" stroke="#168ec8" stroke-width="10" stroke-linecap="round"/>
    <path d="M42 54h78M42 88h118M42 166h212" stroke="#123352" stroke-opacity=".18" stroke-width="12" stroke-linecap="round"/>
    <circle cx="226" cy="52" r="22" fill="#16c8dc" opacity=".9"/>
  </g>
</svg>
