<svg xmlns="http://www.w3.org/2000/svg" viewBox="0 0 960 540" role="img" aria-label="AI banking architecture dashboard">
  <defs>
    <linearGradient id="bg" x1="0" x2="1" y1="0" y2="1"><stop stop-color="#08243a"/><stop offset="1" stop-color="#0f6f8f"/></linearGradient>
    <linearGradient id="accent" x1="0" x2="1"><stop stop-color="#16c8dc"/><stop offset="1" stop-color="#f6a23a"/></linearGradient>
  </defs>
  <rect width="960" height="540" rx="34" fill="url(#bg)"/>
  <path d="M0 430C170 345 320 465 490 380s300-180 470-88v248H0z" fill="#e9fbff" opacity=".08"/>
  <g stroke="#7de7f2" stroke-opacity=".18"><path d="M120 105h720M120 185h720M120 265h720M120 345h720"/><path d="M180 70v360M340 70v360M500 70v360M660 70v360M820 70v360"/></g>
  <g transform="translate(88 104)">
    <rect width="270" height="304" rx="22" fill="#fff" opacity=".92"/>
    <path d="M48 110h174M48 158h174M48 206h132" stroke="#123352" stroke-width="16" stroke-linecap="round" opacity=".22"/>
    <path d="M70 76h130l-65-42z" fill="#164e7a"/>
    <path d="M70 84h130M88 100v64M124 100v64M160 100v64M196 100v64" stroke="#16c8dc" stroke-width="10" stroke-linecap="round"/>
    <rect x="44" y="238" width="182" height="38" rx="12" fill="url(#accent)" opacity=".85"/>
  </g>
  <g transform="translate(430 90)">
    <rect width="390" height="320" rx="28" fill="#f8fdff" opacity=".95"/>
    <rect x="34" y="38" width="96" height="64" rx="14" fill="#dff8ff"/>
    <rect x="148" y="38" width="96" height="64" rx="14" fill="#eef7ff"/>
    <rect x="262" y="38" width="96" height="64" rx="14" fill="#fff4e3"/>
    <path d="M48 232c42-94 78-18 123-78s88-8 154-86" fill="none" stroke="#1677c8" stroke-width="10" stroke-linecap="round"/>
    <circle cx="83" cy="185" r="9" fill="#16c8dc"/><circle cx="171" cy="154" r="9" fill="#f6a23a"/><circle cx="292" cy="88" r="9" fill="#16c8dc"/>
    <path d="M44 268h298" stroke="#123352" stroke-opacity=".16" stroke-width="14" stroke-linecap="round"/>
  </g>
</svg>
