<svg xmlns="http://www.w3.org/2000/svg" viewBox="0 0 960 540" role="img" aria-label="AI government service hub">
  <defs><linearGradient id="bg" x1="0" x2="1" y1="0" y2="1"><stop stop-color="#10233f"/><stop offset="1" stop-color="#205c9b"/></linearGradient></defs>
  <rect width="960" height="540" rx="34" fill="url(#bg)"/>
  <g stroke="#c8eaff" stroke-opacity=".17"><path d="M150 95h660M150 190h660M150 285h660M150 380h660"/><path d="M220 70v360M390 70v360M560 70v360M730 70v360"/></g>
  <g transform="translate(98 116)">
    <rect width="300" height="300" rx="24" fill="#fff" opacity=".93"/>
    <path d="M58 122h184M58 172h184M58 222h130" stroke="#123352" stroke-opacity=".2" stroke-width="16" stroke-linecap="round"/>
    <path d="M82 88h136l-68-48z" fill="#1e5f9b"/>
    <rect x="74" y="252" width="152" height="28" rx="10" fill="#16c8dc"/>
  </g>
  <g transform="translate(480 112)">
    <rect width="330" height="296" rx="28" fill="#f8fdff" opacity=".95"/>
    <circle cx="165" cy="118" r="58" fill="#dff8ff"/><path d="M133 118h64M165 86v64" stroke="#1677c8" stroke-width="14" stroke-linecap="round"/>
    <rect x="56" y="210" width="218" height="42" rx="13" fill="#fff3dd"/>
    <path d="M72 232h124" stroke="#123352" stroke-opacity=".28" stroke-width="10" stroke-linecap="round"/>
  </g>
</svg>
