<svg xmlns="http://www.w3.org/2000/svg" viewBox="0 0 1600 900" role="img" aria-label="AI for government and public services">
  <defs>
    <linearGradient id="bg4" x1="0" y1="0" x2="1" y2="1">
      <stop offset="0%" stop-color="#0c1826"/>
      <stop offset="100%" stop-color="#223247"/>
    </linearGradient>
  </defs>
  <rect width="1600" height="900" fill="url(#bg4)"/>
  <rect x="86" y="84" width="1428" height="734" rx="34" fill="#0d131a" stroke="#375168" stroke-width="2"/>
  <rect x="132" y="130" width="540" height="642" rx="28" fill="#101c28" stroke="#43627a"/>
  <rect x="710" y="130" width="758" height="262" rx="28" fill="#101c28" stroke="#43627a"/>
  <rect x="710" y="428" width="358" height="344" rx="28" fill="#101c28" stroke="#43627a"/>
  <rect x="1110" y="428" width="358" height="344" rx="28" fill="#101c28" stroke="#43627a"/>
  <rect x="176" y="182" width="452" height="102" rx="22" fill="#15334b"/>
  <rect x="176" y="322" width="210" height="164" rx="22" fill="#123049"/>
  <rect x="418" y="322" width="210" height="164" rx="22" fill="#123049"/>
  <rect x="176" y="522" width="452" height="204" rx="22" fill="#13283d"/>
  <rect x="754" y="176" width="184" height="172" rx="20" fill="#173752"/>
  <rect x="962" y="176" width="248" height="172" rx="20" fill="#173752"/>
  <rect x="1234" y="176" width="190" height="172" rx="20" fill="#173752"/>
  <path d="M240 596 C310 550 360 600 420 564 C476 534 530 524 594 566" fill="none" stroke="#65d3ff" stroke-width="10" stroke-linecap="round"/>
  <circle cx="240" cy="596" r="12" fill="#65d3ff"/>
  <circle cx="420" cy="564" r="12" fill="#79efc4"/>
  <circle cx="594" cy="566" r="12" fill="#ffcf6a"/>
  <rect x="752" y="486" width="274" height="228" rx="20" fill="#13283d"/>
  <rect x="1150" y="484" width="70" height="230" rx="18" fill="#1a4a63"/>
  <rect x="1240" y="560" width="70" height="154" rx="18" fill="#2d6d7f"/>
  <rect x="1330" y="512" width="70" height="202" rx="18" fill="#65d3ff"/>
</svg>
