<svg xmlns="http://www.w3.org/2000/svg" viewBox="0 0 1600 900" role="img" aria-label="Enterprise AI admin panel">
  <defs>
    <linearGradient id="bg5" x1="0" y1="0" x2="1" y2="1">
      <stop offset="0%" stop-color="#10111a"/>
      <stop offset="100%" stop-color="#1b2433"/>
    </linearGradient>
  </defs>
  <rect width="1600" height="900" fill="url(#bg5)"/>
  <rect x="76" y="74" width="1448" height="752" rx="36" fill="#0b1017" stroke="#34485c" stroke-width="2"/>
  <rect x="126" y="122" width="280" height="656" rx="24" fill="#101b27" stroke="#385671"/>
  <rect x="438" y="122" width="1040" height="126" rx="24" fill="#101b27" stroke="#385671"/>
  <rect x="438" y="280" width="324" height="222" rx="24" fill="#101b27" stroke="#385671"/>
  <rect x="792" y="280" width="324" height="222" rx="24" fill="#101b27" stroke="#385671"/>
  <rect x="1146" y="280" width="292" height="222" rx="24" fill="#101b27" stroke="#385671"/>
  <rect x="438" y="534" width="622" height="244" rx="24" fill="#101b27" stroke="#385671"/>
  <rect x="1090" y="534" width="348" height="244" rx="24" fill="#101b27" stroke="#385671"/>
  <rect x="164" y="168" width="204" height="18" rx="9" fill="#67d9ff"/>
  <rect x="164" y="218" width="180" height="14" rx="7" fill="#335a74"/>
  <rect x="164" y="252" width="148" height="14" rx="7" fill="#335a74"/>
  <rect x="164" y="314" width="204" height="48" rx="14" fill="#16324a"/>
  <rect x="164" y="382" width="204" height="48" rx="14" fill="#16324a"/>
  <rect x="164" y="450" width="204" height="48" rx="14" fill="#16324a"/>
  <rect x="164" y="518" width="204" height="48" rx="14" fill="#16324a"/>
  <rect x="164" y="586" width="204" height="48" rx="14" fill="#16324a"/>
  <rect x="486" y="160" width="220" height="18" rx="9" fill="#67d9ff"/>
  <rect x="1210" y="160" width="180" height="18" rx="9" fill="#82f0c6"/>
  <rect x="486" y="196" width="310" height="12" rx="6" fill="#3e607c"/>
  <rect x="920" y="160" width="178" height="18" rx="9" fill="#ffcf6a"/>
  <path d="M486 652 C560 612 640 610 706 620 C774 630 850 666 944 612" fill="none" stroke="#67d9ff" stroke-width="12" stroke-linecap="round"/>
  <circle cx="486" cy="652" r="10" fill="#67d9ff"/>
  <circle cx="706" cy="620" r="10" fill="#82f0c6"/>
  <circle cx="944" cy="612" r="10" fill="#ffcf6a"/>
  <rect x="1134" y="584" width="264" height="38" rx="12" fill="#16324a"/>
  <rect x="1134" y="644" width="198" height="38" rx="12" fill="#16324a"/>
  <rect x="1134" y="704" width="156" height="38" rx="12" fill="#16324a"/>
</svg>
